<svg width="500" height="379" viewBox="0 0 500 379" fill="none" xmlns="http://www.w3.org/2000/svg">
<path d="M118.307 0L372.221 0C372.221 30.8382 372.231 61.6713 372.216 92.5095C342.039 67.903 311.852 43.3017 281.732 18.628C272.684 28.5078 262.489 37.4472 250.94 44.299C238.094 52.0395 223.672 57.0311 208.863 59.284C208.78 68.9623 209.044 78.6509 208.728 88.324C208.666 88.4119 208.542 88.5772 208.48 88.6651C178.36 101.537 148.38 114.749 118.307 127.735V0Z" fill="#D90032"></path>
<path d="M372.221 0L372.536 0V254.229H118.307V253.878C202.946 253.883 287.581 253.888 372.221 253.878C372.221 239.787 372.221 225.696 372.221 211.605C372.221 171.905 372.226 132.204 372.216 92.5095C372.231 61.6713 372.221 30.8382 372.221 0Z" fill="#FEFEFE"></path>
<path d="M250.94 44.2986C262.489 37.4469 272.684 28.5075 281.732 18.6277C281.799 82.9549 281.747 147.282 281.809 211.609C257.544 211.62 233.273 211.62 209.002 211.609C209.033 198.376 209.023 185.138 209.007 171.904C218.655 167.6 228.359 163.425 238.032 159.177C238.037 149.923 238.053 140.668 238.027 131.414C228.369 135.677 218.675 139.857 209.018 144.115C209.018 134.876 209.018 125.642 209.018 116.403C218.675 112.176 228.343 107.97 237.991 103.727C237.996 94.4108 238.001 85.0942 237.991 75.7776C228.772 79.8132 219.549 83.8334 210.335 87.8742C209.808 88.0654 209.276 88.2152 208.728 88.3237C209.044 78.6506 208.78 68.962 208.863 59.2837C223.672 57.0308 238.094 52.0392 250.94 44.2986Z" fill="#FEFEFE"></path>
<path d="M118.307 127.735C148.38 114.749 178.361 101.536 208.481 88.6648C209.132 89.8274 208.925 91.2019 208.956 92.4834C208.946 100.456 208.936 108.43 208.961 116.403C178.769 129.703 148.535 142.921 118.307 156.144V127.735Z" fill="#FEFEFE"></path>
<path d="M118.307 183.908C148.54 170.68 178.763 157.431 208.987 144.172C209.002 153.416 208.992 162.665 208.992 171.91C178.856 185.133 148.695 198.278 118.601 211.584L118.307 211.723V183.908Z" fill="#FEFEFE"></path>
<path d="M281.731 18.6277C311.851 43.3014 342.038 67.9027 372.215 92.5092C372.225 132.204 372.22 171.904 372.22 211.604C342.08 211.604 311.944 211.594 281.809 211.609C281.747 147.282 281.798 82.9549 281.731 18.6277Z" fill="#ED801A"></path>
<path d="M210.335 87.874C219.549 83.8332 228.772 79.8131 237.991 75.7775C238.001 85.094 237.996 94.4106 237.991 103.727C228.343 107.97 218.675 112.176 209.018 116.403C209.018 125.642 209.018 134.875 209.018 144.115C218.675 139.857 228.369 135.676 238.027 131.413C238.053 140.668 238.037 149.923 238.032 159.177C228.359 163.425 218.655 167.6 209.007 171.904C209.023 185.137 209.033 198.376 209.002 211.609C178.867 211.578 148.737 211.625 118.601 211.584C148.695 198.278 178.857 185.132 208.992 171.909C208.992 162.665 209.002 153.416 208.987 144.171C178.763 157.431 148.54 170.679 118.307 183.908V156.144C148.535 142.921 178.769 129.703 208.961 116.403C208.935 108.429 208.945 100.456 208.956 92.4832C208.925 91.2017 209.131 89.8273 208.48 88.6646C208.542 88.5768 208.666 88.4114 208.728 88.3236C209.276 88.2151 209.808 88.0652 210.335 87.874Z" fill="#ED801A"></path>
<path d="M118.307 211.723L118.601 211.584C148.737 211.625 178.867 211.579 209.002 211.61C233.273 211.62 257.544 211.62 281.809 211.61C311.945 211.594 342.08 211.604 372.221 211.604C372.221 225.696 372.221 239.787 372.221 253.878C287.581 253.888 202.946 253.883 118.307 253.878V211.723Z" fill="#0057A2"></path>
<path d="M7.44115 311.707C16.7292 311.792 26.0306 311.511 35.3053 311.806C41.1137 312.185 48.0061 314.334 50.2412 320.611C52.61 329.079 48.6218 338.236 41.7695 343.025C45.0752 345.539 48.3407 348.741 48.7556 353.263C49.3177 362.251 44.2186 371.379 36.2689 374.96C24.8663 380.226 11.9647 378.611 0 376.772C2.95772 358.88 6.47755 341.101 9.48881 323.237C10.2249 319.235 8.40475 315.471 7.44115 311.707ZM20.5033 321.693C19.5263 327.464 18.4557 333.222 17.5724 339.022C23.354 338.98 29.5772 339.865 34.9306 337.056C39.1463 334.416 41.8498 326.636 37.2459 323.083C32.1468 320.092 26.044 321.496 20.5033 321.693ZM16.0868 349.064C14.9091 355.355 13.544 361.59 12.5536 367.91C18.5761 368.233 24.96 368.921 30.7014 366.534C36.0146 364.16 39.5345 355.622 34.9707 350.889C29.2427 347.533 22.3368 349.288 16.0868 349.064Z" fill="#343F47"></path>
<path d="M243.015 312.115C257.428 312.045 271.842 311.989 286.256 312.143C286.042 315.851 285.614 319.53 284.945 323.182C275.362 323.434 265.793 323.238 256.211 323.28C255.127 328.279 254.163 333.307 253.293 338.349C261.738 338.475 270.183 338.236 278.628 338.545C278.266 341.944 277.798 345.328 277.263 348.699C268.644 349.204 259.985 348.741 251.352 349.022C250.375 354.695 249.452 360.397 248.542 366.085C258.419 366.197 268.296 365.987 278.173 366.239C277.811 369.764 277.089 373.219 276.152 376.618C262.675 376.716 249.184 376.716 235.707 376.618C238.625 358.726 241.757 340.862 244.795 322.985C245.584 319.235 243.858 315.668 243.015 312.115Z" fill="#343F47"></path>
<path d="M442.642 315.247C446.43 314.081 450.244 312.986 454.098 312.017C450.645 332.619 447.086 353.207 443.258 373.738C434.023 377.025 423.946 379.637 414.256 376.94C408.568 375.452 403.416 370.888 402.064 364.751C399.521 352.996 404.486 339.935 414.109 333.307C421.577 327.633 431.387 326.622 440.233 328.49C441.076 324.08 441.772 319.642 442.642 315.247ZM424.521 338.91C415.742 342.196 410.536 354.4 415.34 363.065C419.502 369.259 427.787 368.191 433.943 366.689C435.71 357.56 437.383 348.39 438.654 339.163C434.13 337.253 429.058 336.776 424.521 338.91Z" fill="#343F47"></path>
<path d="M333.045 321.271C336.19 318.757 340.633 318.645 344.394 317.437C343.765 321.496 343.096 325.54 342.44 329.599C348.047 329.641 353.655 329.501 359.263 329.711C358.995 332.941 358.567 336.143 358.005 339.331C352.343 339.5 346.669 339.373 340.994 339.486C339.977 345.426 338.973 351.381 337.916 357.321C337.448 360.383 336.752 363.809 338.438 366.632C342.881 370.185 348.275 366.955 352.705 365.143C353.173 367.924 355.662 371.182 354.137 373.836C348.476 378.162 340.968 379.341 334.196 377.811C329.94 376.842 325.911 373.373 325.389 368.626C324.827 363.304 326.473 358.079 327.25 352.883C329.324 342.379 330.649 331.691 333.045 321.271Z" fill="#343F47"></path>
<path d="M57.0934 334.122C64.3874 328.055 74.4383 326.763 83.3918 328.462C88.6514 329.417 93.9245 333.363 94.4732 339.304C95.2227 347.14 92.4791 354.724 91.4887 362.405C90.5519 366.197 90.7794 370.635 88.5845 373.893C80.7686 377.334 72.0962 378.471 63.6781 377.91C58.4318 377.516 52.2353 375.41 50.3884 369.638C48.1935 362.279 52.1951 354.092 58.5522 350.623C66.0737 346.031 75.1075 347.505 83.3115 348.699C83.0036 345.553 83.7933 341.27 80.501 339.599C73.7156 335.863 65.9265 339.149 59.5025 342.183C58.4318 339.725 55.5677 336.93 57.0934 334.122ZM65.7123 357.996C62.0721 359.779 61.7509 366.127 65.4714 368.009C70.2761 369.905 75.5357 368.669 80.4742 368.079C81.0764 364.666 81.6787 361.24 82.1605 357.799C76.7938 356.662 70.8515 355.173 65.7123 357.996Z" fill="#343F47"></path>
<path d="M103.761 327.394C113.531 331.761 123.836 325.441 133.753 328.826C139.722 330.385 144.259 336.634 143.51 343.165C142.158 354.456 139.642 365.578 137.889 376.813C134.208 377.01 130.528 377.024 126.861 376.897C128.079 367.783 130.166 358.823 131.531 349.737C132.08 346.184 132.067 341.634 128.841 339.471C124.92 337.224 120.102 337.8 115.993 339.162C114.615 339.794 112.433 340.201 112.34 342.167C110.172 353.739 108.271 365.368 106.049 376.925C102.409 376.982 98.7689 377.01 95.1287 376.911C97.8455 360.382 100.857 343.895 103.761 327.394Z" fill="#343F47"></path>
<path d="M156.625 334.219C165.725 326.509 180.086 324.992 189.36 333.208C187.393 336.297 185.064 339.092 182.441 341.564C178.587 339.569 174.371 336.929 169.941 338.46C158.94 340.707 152.743 356.647 159.81 365.901C165.284 371.027 173.18 368.05 178.734 364.637C180.608 366.926 182.04 369.553 182.95 372.418C175.709 378.105 165.886 380.17 157.294 376.94C151.954 375.212 147.644 370.451 146.386 364.736C143.777 353.641 147.992 341.17 156.625 334.219Z" fill="#343F47"></path>
<path d="M207.334 328.756C214.588 326.846 223.059 327.366 228.935 332.689C234.73 338.152 235.894 347.294 233.953 354.892C230.875 369.806 215.913 380.718 201.512 378.064C193.857 377.165 186.884 370.817 185.773 362.672C183.418 347.814 193.469 332.352 207.334 328.756ZM210.077 338.348C199.973 340.258 194.058 352.631 197.631 362.475C199.986 367.994 206.906 369.441 211.871 367.18C220.784 364.245 225.308 352.841 222.31 343.881C220.409 338.966 214.695 337.14 210.077 338.348Z" fill="#343F47"></path>
<path d="M290.526 332.898C299.787 325.076 313.371 325.905 323.529 331.424C322.579 334.682 320.839 337.561 318.738 340.145C312.528 337.912 305.636 334.864 299.145 337.771C296.508 338.74 296.615 341.914 296.388 344.302C302.638 347.405 310.065 347.026 315.927 351.043C321.762 355.284 320.33 364.637 316.289 369.707C310.547 376.939 300.884 377.88 292.506 377.711C287.354 377.782 282.737 375.071 278.548 372.234C280.328 369.341 282.402 366.645 284.664 364.131C290.352 367.726 297.271 370.254 303.829 367.698C306.653 366.701 309.517 362.909 307.509 359.89C301.473 356.014 293.363 357.432 287.903 352.363C282.71 346.801 285.453 337.491 290.526 332.898Z" fill="#343F47"></path>
<path d="M362.475 334.754C371.174 327.844 383.286 325.625 393.524 329.768C399.159 331.973 401.3 338.798 400.457 344.612C399.159 354.401 397.084 364.077 395.278 373.767C384.705 377.587 372.633 380.255 361.873 375.803C353.267 372.012 354.592 358.811 360.896 353.376C368.444 346.031 379.632 346.859 389.001 348.868C389.001 345.497 389.79 340.793 386.043 339.192C379.338 336.327 371.937 338.911 365.821 342.183C364.121 340.034 363.144 337.436 362.475 334.754ZM371.616 357.687C367.895 359.836 367.735 366.464 371.897 368.22C376.648 369.708 381.72 368.782 386.525 367.995C387.1 364.456 387.663 360.917 388.171 357.364C382.778 356.226 376.702 354.64 371.616 357.687Z" fill="#343F47"></path>
<path d="M474.87 328.223C481.12 327.211 488.106 327.703 493.285 331.93C498.357 335.722 500.352 342.631 499.95 348.937C499.79 363.065 488.922 375.957 475.659 378.092C468.272 379.341 459.693 377.305 454.995 370.789C451.114 365.944 450.833 359.217 451.623 353.234C453.416 340.904 463.226 330.512 474.87 328.223ZM475.084 338.517C465.073 340.848 459.639 353.628 463.654 363.219C467.174 369.497 475.686 369.216 480.973 365.663C488.026 361.632 490.22 351.928 488.106 344.274C486.299 338.826 479.969 336.93 475.084 338.517Z" fill="#343F47"></path>
</svg>
