<svg width="500" height="500" viewBox="0 0 500 500" fill="none" xmlns="http://www.w3.org/2000/svg">
<rect width="500" height="500" fill="#64AA99"></rect>
<path d="M441.837 215.076C418.924 215.076 402.543 225.674 394.272 241.37C394.272 204.293 407.206 171.989 437.913 171.989C457.435 171.989 465.185 183.228 469.315 201.641L497.75 195.957C491.065 164.152 470.859 148.707 438.109 148.707C396.967 148.707 366.185 180.293 366.185 251.098C366.185 313.957 391.848 345.022 436.076 345.022C472.63 345.022 500 320.065 500 278.935C500 246.804 482.87 215.076 441.837 215.076ZM436.152 321.793C413.467 321.793 397.772 300.924 395.043 273.283C401.935 249.674 417.217 237.924 435.272 237.924C458.489 237.924 471.598 255.065 471.598 279.446C471.598 305.609 456.674 321.793 436.152 321.793ZM284.902 282.25C275.696 291.457 254.946 308.076 240.467 318.076H327.326V342.989H199.511V320.239C214.326 309.663 245.087 286.696 264.337 267.435C282.761 249.011 294.826 232.174 294.826 207.457C294.826 183.141 281.467 173.033 263.413 173.033C244.913 173.033 230.13 183.728 230.13 206.065C230.13 210.935 230.674 216.348 232.022 222.576L202.989 219.761C201.73 214.805 201.094 209.711 201.098 204.598C201.098 174.783 222.011 148.707 264.37 148.707C299.315 148.707 325.163 166.848 325.163 206.511C325.163 242.576 298.826 268.522 286.978 280.196L284.902 282.25ZM0 76H154.902V100.913H0V76ZM125.859 150.728V282.25H125.848C125.848 293.891 126.12 300.935 126.663 307.707H126.12C123.272 299.957 119.913 293.163 114.913 284.315L37.1304 150.728H1.58696V342.989H29.2826V211.467H29.3043C29.3043 199.815 29.0326 192.783 28.4891 186.011H29.0326C31.8696 193.761 35.2283 200.554 40.2283 209.391L118.011 342.989H153.196V150.728H125.859ZM0 392.804H154.902V417.587H0V392.804Z" fill="white"></path>
</svg>
