<svg xmlns:xlink="http://www.w3.org/1999/xlink" xmlns="http://www.w3.org/2000/svg" version="1.1" viewBox="0 0 352 153" height="153px" width="352px">
    <title>Negative B + endorsement</title>
    <g fill-rule="evenodd" fill="none" stroke-width="1" stroke="none" id="Page-1">
        <g id="Negative-B-+-endorsement">
            <path fill="#000000" id="Path" d="M37.2631,33.0281 C28.8707,33.0281 22.5093,36.0766 19.0773,40.7714 L19.0773,34.805 L0,34.805 L0,98.2945 L19.0773,98.2945 L19.0773,63.6301 C19.0773,54.6151 23.9103,50.5494 30.9051,50.5494 C37.0083,50.5494 41.9687,54.2336 41.9687,62.1075 L41.9687,98.2945 L61.046,98.2945 L61.046,59.3133 C61.046,42.1702 50.1097,33.0281 37.2631,33.0281 Z"></path>
            <path fill="#000000" id="Shape" d="M87.6242,59.9458 C89.4072,53.4707 94.2402,49.9169 101.49,49.9169 C107.211,49.9169 112.935,52.5839 114.967,59.9458 L87.6242,59.9458 Z M101.614,33.0281 C81.5209,33.0281 67.7827,47.6314 67.7827,66.5514 C67.7827,85.4681 81.2662,100.075 103.015,100.075 C115.097,100.075 124.509,95.6275 130.739,86.994 L115.476,78.2334 C112.935,81.0242 108.485,83.0588 103.269,83.0588 C96.2713,83.0588 90.4228,80.7732 88.0063,74.1676 L133.156,74.1676 C133.665,71.7583 133.92,69.2184 133.92,66.5514 C133.92,47.3771 120.182,33.0281 101.614,33.0281 Z"></path>
            <polygon points="220.488 34.8049 208.955 34.8049 199.799 68.8369 189.878 34.8049 172.071 34.8049 162.154 68.8369 152.994 34.8049 132.646 34.8049 152.994 98.2945 170.801 98.2945 180.973 64.393 191.148 98.2945 208.955 98.2945 220.488 62.3049" fill="#000000" id="Path"></polygon>
            <path fill="#00C88F" id="Shape" d="M312.275,78.6283 C300.712,78.6283 295.065,68.5927 295.065,50.0374 C295.065,31.4787 300.712,21.4465 312.275,21.4465 C323.841,21.4465 329.486,31.4787 329.486,50.0374 C329.486,68.5927 323.841,78.6283 312.275,78.6283 Z M312.275,0 C287.356,0 273.038,20.3456 273.038,50.0374 C273.038,79.7292 287.356,100.075 312.275,100.075 C337.198,100.075 351.516,79.7292 351.516,50.0374 C351.516,20.3456 337.198,0 312.275,0 Z"></path>
            <path fill="#00C88F" id="Path" d="M242.14,1.92407 C238.671,9.8214 231.733,14.118 220.488,14.118 L220.488,34.9053 C221.832,34.9053 223.102,34.8718 224.306,34.8049 L224.312,34.8049 C226.293,34.6978 228.1,34.4937 229.762,34.1825 C234.531,33.2924 238.098,31.4954 241.03,28.39 L241.03,98.1472 L263.526,98.1472 L263.526,1.92407 L242.14,1.92407 Z"></path>
            <polygon points="131.463 125.159 131.463 152.324 117.561 138.691 117.561 116 145.164 116 145.164 138.675" fill="#00AB95" id="Path"></polygon>
            <polygon points="131.463 152.327 131.463 125.152 145.164 138.665" fill="#FDB913" id="Path"></polygon>
            <polygon points="189.312 119.353 193.531 129.807 193.531 119.353 196.4 119.353 196.4 134.154 192.345 134.154 188.041 123.134 188.045 134.154 185.152 134.154 185.166 119.353" fill="#000000" id="Path"></polygon>
            <polygon points="225.378 119.353 227.905 129.696 230.436 119.353 235.353 119.353 235.353 134.154 232.316 134.154 232.309 122.499 229.256 134.154 226.37 134.154 223.411 122.549 223.411 134.154 220.391 134.154 220.391 119.353" fill="#000000" id="Path"></polygon>
            <path fill="#000000" id="Shape" d="M245.967,119.38 C247.177,119.494 248.263,120.2 248.712,121.304 C249.238,122.683 249.245,124.737 248.243,125.922 C247.723,126.434 247.026,126.765 246.165,126.902 C246.376,126.939 246.621,127.033 246.922,127.086 C247.837,127.247 248.38,127.722 248.699,128.405 C249.265,129.824 248.87,131.641 249.158,133.18 L249.345,134.154 L246.265,134.154 C245.732,132.538 246.396,130.292 245.682,128.81 C245.2,127.933 243.832,128.003 242.77,128.033 L242.77,134.154 L239.757,134.154 L239.743,119.353 C239.743,119.353 244.761,119.266 245.967,119.38 Z M242.77,121.558 L242.77,125.785 C242.77,125.785 244.814,126.066 245.545,125.152 C246.014,124.403 245.984,123.168 245.699,122.341 C245.169,121.317 243.775,121.572 242.77,121.558 Z"></path>
            <path fill="#000000" id="Shape" d="M162.931,119.353 L167.057,134.154 L163.87,134.154 L162.968,130.894 L158.611,130.894 L157.696,134.154 L154.659,134.154 L158.809,119.353 L162.931,119.353 Z M160.763,122.03 L159.244,128.632 L159.238,128.632 L162.288,128.632 L160.833,122.361 L160.763,122.03 Z"></path>
            <path fill="#000000" id="Shape" d="M178.111,119.54 C178.999,119.688 180.021,120.558 180.306,121.582 C180.634,122.843 180.638,124.403 179.676,125.49 C179.237,125.965 178.63,126.206 178.03,126.444 C178.499,126.591 178.959,126.755 179.401,126.989 C180.825,127.846 180.899,129.787 180.661,131.366 C180.443,132.591 179.31,133.726 178.141,134 C177.682,134.104 177.088,134.154 176.535,134.154 L170.566,134.154 L170.566,119.353 C172.849,119.35 176.438,119.256 178.111,119.54 Z M175.852,125.37 C176.927,125.346 177.3,124.711 177.457,124.158 C177.618,123.409 177.544,122.569 176.907,121.967 L176.606,121.752 C176.17,121.448 174.689,121.525 173.683,121.542 C173.683,122.766 173.713,124.108 173.683,125.37 L175.852,125.37 Z M173.683,127.618 L173.683,131.942 C174.913,131.872 176.16,132.21 177.085,131.537 C177.846,130.864 177.826,129.526 177.514,128.652 C176.867,127.314 174.98,127.675 173.683,127.618 Z"></path>
            <polygon points="201.284 127.481 203.238 125.564 201.3 123.66 199.346 125.581" fill="#000000" id="Path"></polygon>
            <path fill="#000000" id="Shape" d="M212.904,119.353 L217.033,134.154 L213.842,134.154 L212.94,130.894 L208.583,130.894 L207.672,134.154 L204.635,134.154 L208.784,119.353 L212.904,119.353 Z M210.735,122.03 L209.22,128.632 L209.21,128.632 L212.263,128.632 L210.805,122.361 L210.735,122.03 Z"></path>
            <path fill="#000000" id="Shape" d="M262.715,121.257 C263.73,123.499 263.493,126.343 263.506,128.87 C263.513,130.038 263.238,132.501 261.753,133.572 C260.707,134.284 259.461,134.508 258.096,134.492 C256.283,134.465 254.48,133.826 253.739,132.059 C252.985,130.158 253.153,127.444 253.15,125.075 C253.15,123.355 253.381,121.167 254.983,119.982 C256.628,118.948 259.283,118.978 261.059,119.724 C261.696,119.989 262.4,120.601 262.715,121.257 Z M260.302,124.165 C260.185,121.26 258.794,121.327 258.214,121.327 C257.587,121.327 256.498,121.652 256.39,124.091 L256.39,129.295 C256.565,131.858 257.205,132.353 258.365,132.353 C259.568,132.353 260.288,131.808 260.302,129.094 L260.302,124.165 Z"></path>
            <path fill="#000000" id="Shape" d="M0.117306,134.334 L2.03777,134.334 L2.03777,122.522 L0.117306,122.522 L0.117306,134.334 Z M0,119.507 L2.15508,119.507 L2.15508,117.449 L0,117.449 L0,119.507 Z"></path>
            <path fill="#000000" id="Path" d="M11.7809,134.338 L11.7809,126.146 C11.7809,124.888 11.3351,123.857 9.69616,123.857 C7.58801,123.857 7.27966,125.724 7.27966,127.341 L7.27966,134.338 L5.36255,134.338 L5.36255,124.981 C5.36255,124.162 5.31562,123.345 5.24524,122.522 L7.27966,122.522 L7.27966,124.045 L7.3735,124.045 C8.12426,122.713 9.01579,122.288 10.5374,122.288 C13.0679,122.288 13.7013,123.807 13.7013,126.146 L13.7013,134.338 L11.7809,134.338 Z"></path>
            <path fill="#000000" id="Shape" d="M17.0194,134.334 L18.9399,134.334 L18.9399,122.522 L17.0194,122.522 L17.0194,134.334 Z M16.9021,119.507 L19.0572,119.507 L19.0572,117.449 L16.9021,117.449 L16.9021,119.507 Z"></path>
            <path fill="#000000" id="Path" d="M22.4725,122.522 L22.4725,120.257 L24.3963,119.39 L24.3963,122.522 L26.9703,122.522 L26.9703,123.974 L24.3963,123.974 L24.3963,131.199 C24.3963,131.949 24.3963,132.909 26.1525,132.909 C26.2933,132.909 26.5983,132.862 27.0206,132.815 L27.0206,134.288 C26.3871,134.338 25.7537,134.478 25.1202,134.478 C23.2936,134.478 22.4758,133.729 22.4758,132.374 L22.4725,123.974 L20.5285,123.974 L20.5285,122.522 L22.4725,122.522 Z"></path>
            <path fill="#000000" id="Shape" d="M28.7266,134.334 L30.647,134.334 L30.647,122.522 L28.7266,122.522 L28.7266,134.334 Z M28.6093,119.507 L30.7643,119.507 L30.7643,117.449 L28.6093,117.449 L28.6093,119.507 Z"></path>
            <path fill="#000000" id="Shape" d="M35.7247,130.828 C35.7247,131.975 36.2877,133.003 37.5781,133.003 C38.7478,133.003 40.199,132.276 40.0114,128.465 C38.1847,128.488 35.7247,128.324 35.7247,130.828 Z M40.0583,132.628 L40.0114,132.628 C39.4282,133.983 38.5132,134.572 37.0351,134.572 C34.5315,134.572 33.8042,132.959 33.8042,130.687 C33.8042,127.11 37.32,126.946 40.0114,127.013 C40.0583,125.447 40.0817,123.74 38.0205,123.74 C36.7335,123.74 36.0531,124.607 36.1704,125.845 L34.0824,125.845 C34.1796,123.205 35.5839,122.288 38.0909,122.288 C41.1341,122.288 41.9318,123.857 41.9318,125.845 L41.9318,131.53 C41.9318,132.467 42.029,133.421 42.1698,134.338 L40.0583,134.338 L40.0583,132.628 Z"></path>
            <path fill="#000000" id="Path" d="M45.8834,122.522 L45.8834,120.257 L47.8038,119.39 L47.8038,122.522 L50.3812,122.522 L50.3812,123.974 L47.8038,123.974 L47.8038,131.199 C47.8038,131.949 47.8038,132.909 49.5634,132.909 C49.7042,132.909 50.0092,132.862 50.4281,132.815 L50.4281,134.288 C49.798,134.338 49.1612,134.478 48.5311,134.478 C46.7045,134.478 45.8834,133.729 45.8834,132.374 L45.8834,123.974 L43.9395,123.974 L43.9395,122.522 L45.8834,122.522 Z"></path>
            <path fill="#000000" id="Shape" d="M58.6697,127.598 C58.6697,124.162 57.7112,123.74 56.3069,123.74 C55.0869,123.74 54.078,124.326 54.0579,127.598 L58.6697,127.598 Z M54.0579,129.051 C54.0579,132.35 54.9461,133.003 56.4443,133.003 C57.7581,133.003 58.4385,131.949 58.5089,130.757 L60.6137,130.757 C60.5935,133.377 58.9747,134.572 56.4945,134.572 C53.9875,134.572 51.9933,133.822 51.9933,128.606 C51.9933,125.142 52.3922,122.288 56.4945,122.288 C59.8663,122.288 60.7109,124.138 60.7109,128.043 L60.7109,129.051 L54.0579,129.051 Z"></path>
            <path fill="#000000" id="Shape" d="M67.9168,123.857 C65.8555,123.857 65.574,125.494 65.574,128.652 C65.574,130.429 65.574,133.003 67.9871,133.003 C70.1422,133.003 70.1422,130.332 70.1422,127.953 C70.1422,126.384 70.0484,123.857 67.9168,123.857 Z M70.1422,117.449 L72.0627,117.449 L72.0627,134.338 L70.1422,134.338 L70.1422,132.932 L70.0953,132.932 C69.4384,134.03 68.6206,134.572 67.3772,134.572 C65.4802,134.572 63.5563,133.822 63.5563,128.632 C63.5563,125.684 63.6502,122.288 67.471,122.288 C68.5938,122.288 69.4183,122.78 70.0718,123.717 L70.1422,123.717 L70.1422,117.449 Z"></path>
            <path fill="#000000" id="Shape" d="M85.03,133.003 C87.4432,133.003 87.4432,130.429 87.4432,128.652 C87.4432,125.494 87.1617,123.857 85.1004,123.857 C82.9688,123.857 82.875,126.384 82.875,127.953 C82.875,129.753 82.6638,133.003 85.03,133.003 Z M82.875,134.338 L80.9511,134.338 L80.9511,117.449 L82.875,117.449 L82.875,123.717 L82.9453,123.717 C83.5989,122.78 84.42,122.288 85.5462,122.288 C89.3637,122.288 89.4575,125.684 89.4575,128.632 C89.4575,133.822 87.537,134.572 85.64,134.572 C84.3966,134.572 83.5788,134.03 82.9219,132.932 L82.875,132.932 L82.875,134.338 Z"></path>
            <polygon points="96.0534 132.136 96.1004 132.136 98.9358 122.522 101.024 122.522 95.658 138.805 93.6638 138.805 95.001 134.338 90.9959 122.522 93.2213 122.522" fill="#000000" id="Path"></polygon>
        </g>
    </g>
</svg>