<svg xml:space="preserve" style="enable-background:new 0 0 500 500;" viewBox="0 0 500 500" y="0px" x="0px" xmlns:xlink="http://www.w3.org/1999/xlink" xmlns="http://www.w3.org/2000/svg" id="Layer_1" version="1.1">
<style type="text/css">
	.st0{fill:#EEEEEE;}
	.st1{fill:#434DAF;}
	.st2{fill:#020202;}
	.st3{fill:#57CDFF;enable-background:new    ;}
</style>
<rect height="500" width="500" class="st0"></rect>
<path d="M59.3,201.3c2.1,0.4,3.6,1.8,5,3.2c3.7,3.9,7.5,7.7,11.2,11.5c6.1,6.2,12.2,12.5,18.3,18.7
	c2.4,2.4,4.8,4.9,7.2,7.3c1.2,1.2,1.2,2.3,0.1,3.6c-4.1,4.2-8.2,8.5-12.3,12.7c-0.6,0.6-1.1,1.2-1.7,1.7c-0.9,1-2,1-2.9,0.1
	c-4.4-4.4-8.7-8.9-13-13.4c-3.5-3.7-7.8-5.7-12.9-5.7c-4.6,0-8.6,1.7-11.8,5c-4.6,4.6-9.1,9.3-13.7,13.9c-1.1,1.1-2.1,1.1-3.2,0
	c-4.7-4.8-9.3-9.6-14-14.4c-0.3-0.3-0.5-0.7-0.7-1.1c0-0.3,0-0.7,0-1c0.2-0.3,0.4-0.6,0.6-0.8c2.2-2.2,4.3-4.5,6.5-6.7
	c3.6-3.7,7.2-7.4,10.8-11.1c6.7-6.8,13.3-13.6,20-20.5c1.4-1.4,2.8-2.6,4.7-3C57.9,201.3,58.6,201.3,59.3,201.3z" class="st1"></path>
<path d="M188.4,298.7c0-8.6,0-17.2,0-25.8c0-0.6,0.1-0.8,0.8-0.8c1.3,0.1,2.6,0,4,0c0.5,0,0.8,0.2,1.1,0.6
	c3.8,5.7,7.7,11.3,11.5,17c0.1,0.1,0.1,0.2,0.3,0.4c0-0.4,0-0.6,0-0.9c0-5.4,0-10.9,0-16.3c0-0.7,0.2-0.8,0.8-0.8c1.2,0,2.3,0,3.5,0
	c0.6,0,0.7,0.2,0.7,0.7c0,8.3,0,16.7,0,25c0,0.3,0,0.6,0,0.8c-1.7,0-3.5,0-5.2,0c-0.1-0.2-0.2-0.4-0.4-0.6
	c-3.1-4.5-6.2-9.1-9.3-13.6c-0.9-1.3-1.8-2.7-2.8-4.1c0,6.3,0,12.3,0,18.3C191.8,298.7,190.1,298.7,188.4,298.7z" class="st1"></path>
<path d="M136.2,298.7c0.1-0.2,0.1-0.5,0.1-0.8c0-8.3,0-16.6,0-24.9c0-1.1-0.1-0.9,1-0.9c4,0,8,0,12,0
	c2.6,0,4.8,0.8,6.2,3.1c1.5,2.4,1.8,7-2.1,9.3c1.3,0.6,2.4,1.5,3.1,2.8c2.2,4,0.5,10.1-5.1,11.1c-0.1,0-0.3,0-0.4,0.2
	C146.1,298.7,141.2,298.7,136.2,298.7z M145.6,287C145.6,287,145.6,287,145.6,287c-1.2,0-2.5,0-3.7,0c-0.3,0-0.5,0.1-0.5,0.5
	c0,2.2,0,4.3,0,6.5c0,0.3,0,0.5,0.4,0.5c2.5,0,5,0.1,7.6-0.1c2.1-0.1,3.2-1.7,3.1-4.1c-0.1-1.9-1.6-3.3-3.6-3.3
	C147.7,287,146.7,287,145.6,287z M145.2,276.3c-1.1,0-2.2,0-3.3,0c-0.4,0-0.6,0-0.6,0.5c0,1.9,0,3.8,0,5.7c0,0.4,0.1,0.5,0.5,0.5
	c2.2,0,4.4,0,6.6,0c1.9,0,3.3-1.5,3.2-3.5c0-1.9-1.3-3.2-3.3-3.2C147.3,276.3,146.3,276.3,145.2,276.3z" class="st1"></path>
<path d="M217.2,298.7c0-2.8,0-5.6,0-8.4c0-5.8,0-11.6,0-17.4c0-0.6,0.1-0.8,0.8-0.8c1.2,0.1,2.4,0,3.6,0
	c0.5,0,0.6,0.1,0.6,0.6c0,3.3,0,6.6,0,10c0,0.2,0,0.4,0,0.7c0.8-0.8,1.5-1.5,2.2-2.2c2.8-2.9,5.7-5.8,8.5-8.7c0.3-0.3,0.6-0.4,1-0.4
	c1.9,0,3.7,0,5.8,0c-0.6,0.6-1,1.1-1.5,1.6c-3.1,3.1-6.2,6.3-9.3,9.4c-0.4,0.4-0.4,0.6-0.1,1c3.4,4.6,6.8,9.3,10.2,14
	c0.2,0.2,0.4,0.4,0.4,0.7c-2,0-4.1,0-6.1,0c-2.8-3.7-5.5-7.5-8.3-11.2c-0.2-0.3-0.4-0.2-0.6,0c-0.7,0.7-1.4,1.5-2.1,2.2
	c-0.3,0.2-0.3,0.5-0.3,0.8c0,2,0,3.9,0,5.9c0,0.8-0.1,1.6,0.1,2.3C220.5,298.7,218.8,298.7,217.2,298.7z" class="st1"></path>
<path d="M159.4,298.7c0.3-1.3,0.9-2.5,1.3-3.7c2.8-7.4,5.5-14.8,8.3-22.3c0.2-0.4,0.4-0.6,0.9-0.6c1.4,0,2.9,0,4.3,0
	c0.6,0,0.9,0.2,1.1,0.7c2.3,6.1,4.5,12.3,6.8,18.4c0.9,2.3,1.7,4.6,2.6,6.9c0.1,0.2,0.2,0.4,0.1,0.6c-1.7,0-3.5,0-5.2,0
	c-0.7-1.7-1.3-3.5-2-5.2c-0.1-0.3-0.2-0.5-0.6-0.5c-3.3,0-6.5,0-9.8,0c-0.3,0-0.5,0.1-0.6,0.4c-0.6,1.8-1.2,3.5-1.8,5.3
	C162.9,298.7,161.2,298.7,159.4,298.7z M172.1,278.7c-0.1,0-0.1,0-0.2,0c-1.2,3.2-2.4,6.4-3.6,9.7c2.5,0,4.9,0,7.3,0
	C174.5,285.1,173.3,281.9,172.1,278.7z" class="st1"></path>
<path d="M168.6,232c3.6,1.6,5.2,4.8,6.2,8.3c1.7,5.5,3.2,11.1,4.8,16.7c0.2,0.5,0,0.6-0.5,0.6c-2.6,0-5.2,0-7.9,0
	c-0.4,0-0.6-0.2-0.7-0.5c-1.3-4.6-2.7-9.3-4-13.9c-0.3-1.2-0.8-2.3-1.3-3.3c-1.5-3.2-4.2-4.4-7.6-4.5c-4.1-0.1-8.3,0-12.4,0
	c-0.6,0-0.6,0.3-0.6,0.7c0,7,0,13.9,0,20.9c0,0.7-0.2,0.8-0.8,0.8c-2.3,0-4.7,0-7,0c-0.5,0-0.7-0.2-0.7-0.7c0-17.8,0-35.5,0-53.3
	c0-0.6,0.1-0.7,0.7-0.7c8.2,0,16.3,0.1,24.5,0c3.3,0,6.4,0.5,9.2,2.1c4.9,2.7,7.2,6.9,7.4,12.3c0.1,2.6-0.2,5.1-1.3,7.4
	c-1.5,3.3-4.2,5.5-7.5,6.8c-0.2,0.1-0.4,0.1-0.6,0.2C168.6,231.8,168.6,231.9,168.6,232z M153.6,228.2c2.6,0,5.3,0.1,7.9,0
	c3.2-0.1,6.5-1.7,7.8-5.4c0.4-1.3,0.5-2.6,0.5-3.9c0-5.3-3.5-8.5-8.6-8.5c-5.3-0.1-10.6,0-15.8,0c-0.5,0-0.7,0.1-0.7,0.7
	c0,5.5,0,11,0,16.5c0,0.6,0.2,0.7,0.7,0.7C148.1,228.2,150.8,228.2,153.6,228.2z" class="st2"></path>
<path d="M338.7,250.8c-1.4,1.6-2.9,2.9-4.7,4c-7.9,4.6-21.6,2.5-25.8-9.7c-2.3-6.9-2-13.7,1.9-20
	c3.3-5.3,8.3-7.8,14.5-8c4-0.2,7.7,0.9,11,3.2c1.1,0.8,2.2,1.8,3.2,3.1c0-1,0-1.8,0-2.6c0-0.8-0.3-1.9,0.1-2.3
	c0.4-0.4,1.5-0.1,2.2-0.1c1.7,0,3.3,0,5,0c0.6,0,0.8,0.1,0.8,0.8c0,9.8,0,19.6,0,29.4c0,3.2,0.2,6.4-0.1,9.6
	c-0.5,5.2-2.6,9.7-7.2,12.7c-2.7,1.7-5.6,2.5-8.7,2.7c-7.1,0.5-13.9-0.8-20.1-4.3c-0.6-0.4-0.8-0.6-0.5-1.3c0.8-1.9,1.5-3.8,2.3-5.7
	c0.2-0.5,0.3-0.6,0.7-0.3c3.6,2.1,7.4,3.7,11.5,4.1c2.7,0.3,5.4,0.3,8-0.7c3.2-1.1,5-3.5,5.7-6.8C339,255.9,338.6,253.3,338.7,250.8
	z M315.1,237c0,0.8,0,1.7,0.1,2.6c0.5,3.4,1.9,6.3,4.8,8.4c2.3,1.6,4.9,2.2,7.7,2c4.5-0.3,7.8-2.4,9.7-6.5c1.3-2.9,1.5-6,1.1-9.1
	c-0.9-6.2-5.2-10-11.2-10.3c-4.9-0.2-8.7,1.8-11,6.4C315.4,232.5,315,234.7,315.1,237z" class="st2"></path>
<path d="M216.7,246.6c1,2,2,4,3.1,6c0.2,0.4-0.1,0.5-0.3,0.6c-3.1,2.6-6.5,4.3-10.5,5.1c-4.3,0.8-8.6,0.9-12.8-0.6
	c-6-2.1-10-6.2-11.8-12.2c-2.2-7.2-1.6-14.2,2.5-20.6c2.9-4.5,7.3-6.9,12.6-7.7c3.7-0.6,7.3-0.3,10.8,1.2c4.4,1.9,7.3,5.1,9,9.6
	c1.4,3.6,1.8,7.4,1.7,11.2c0,0.5-0.2,0.6-0.6,0.6c-2,0-3.9,0-5.9,0c-7.6,0-15.2,0-22.8,0c-0.6,0-0.7,0.2-0.7,0.7
	c0.3,3,1.3,5.6,3.4,7.8c2.6,2.7,5.9,3.6,9.6,3.5c4.5-0.1,8.4-2,11.9-4.7C216.3,246.9,216.5,246.8,216.7,246.6z M202.3,234
	c0.3,0,0.7,0,1,0c3.1,0,6.2,0,9.3,0c0.3,0,0.7,0.1,0.6-0.4c-0.3-3-1.4-5.7-3.8-7.6c-2.7-2.2-5.9-2.5-9.2-1.8c-4.8,1-7.5,4.3-8.6,9
	c-0.2,0.6-0.1,0.8,0.6,0.8C195.5,234,198.9,234,202.3,234z" class="st2"></path>
<path d="M486.3,235.5c0,1.4,0,2.8,0,4.3c-0.3,0-0.5,0-0.8,0c-9.5,0-19,0-28.4,0c-0.3,0-0.7-0.2-0.7,0.5
	c0.5,4.5,2.3,8.1,6.4,10.2c2.7,1.4,5.5,1.5,8.4,1.2c3.8-0.5,7-2.2,10-4.5c0.2-0.2,0.4-0.3,0.6-0.5c1,2,2,4,3,5.9
	c0.2,0.4-0.1,0.5-0.3,0.7c-3.4,2.9-7.2,4.7-11.6,5.3c-4,0.6-8,0.6-11.9-0.9c-6.6-2.5-10.5-7.4-12-14.1c-1.3-5.9-0.7-11.7,2.3-17.1
	c3-5.3,7.7-8.3,13.7-9.1c4.3-0.6,8.4-0.1,12.2,2c4,2.3,6.4,5.7,7.8,10.1C485.8,231.3,486.2,233.4,486.3,235.5z M467.5,233.9
	C467.5,234,467.5,234,467.5,233.9c3.4,0,6.8,0,10.2,0.1c0.5,0,0.7-0.1,0.6-0.6c-0.3-2.8-1.3-5.3-3.5-7.2c-3-2.6-6.6-2.8-10.3-1.9
	c-4.3,1.2-6.7,4.3-7.7,8.5c-0.3,1-0.2,1.1,0.8,1.1C461,233.9,464.2,233.9,467.5,233.9z" class="st2"></path>
<path d="M282.7,258.8c-5,0-9.5-1.4-13.4-4.6c-3.7-3.1-5.9-7.2-6.7-12c-0.9-5.4-0.3-10.6,2.5-15.4
	c3.1-5.3,7.8-8.3,13.8-9.4c4-0.7,7.9-0.3,11.7,1.2c5.2,2,8.8,5.7,10.7,11c2.3,6.2,2.2,12.4-0.6,18.4c-2.6,5.7-7.2,9.1-13.3,10.5
	C285.9,258.7,284.3,258.8,282.7,258.8z M294.6,238.9c0-3.2-0.4-5.4-1.3-7.5c-1.8-4.2-4.9-6.8-9.5-7.2c-4.9-0.4-8.8,1.4-11.1,5.8
	c-2.8,5.2-2.8,10.6-0.2,15.8c2.3,4.4,6.2,6.2,11,5.9c3.3-0.2,6.1-1.6,8.1-4.2C293.8,244.7,294.5,241.4,294.6,238.9z" class="st2"></path>
<path d="M42.7,266.9c-0.1-7.3,4.9-14.4,12.7-15.9c6.2-1.2,12.6,1.4,16.1,7.2c3.9,6.5,3,14.4-2.2,19.9
	c-2.8,2.9-6.3,4.4-10.3,4.6c-8.1,0.4-15.1-5.7-16.1-13.7C42.8,268.2,42.8,267.4,42.7,266.9z" class="st3"></path>
<path d="M363.4,223.2c0.5-0.6,0.9-1.1,1.4-1.6c2.8-3,6.3-4.4,10.4-4.6c4.1-0.2,7.9,0.8,10.9,3.8
	c2.5,2.4,3.8,5.5,4.4,8.9c0.2,1.1,0.2,2.2,0.2,3.2c0,7.9,0,15.8,0,23.8c0,0.7-0.2,0.9-0.9,0.9c-2.2,0-4.4,0-6.6,0
	c-0.6,0-0.7-0.1-0.7-0.7c0-7.9,0-15.7,0-23.6c0-1.7-0.4-3.3-1.2-4.9c-1.2-2.4-3.2-3.8-5.8-4.2c-4.8-0.7-8.9,1.2-11,5.7
	c-0.9,1.9-1.2,3.9-1.2,5.9c0,7,0,14,0,21.1c0,0.6-0.1,0.7-0.7,0.7c-2.2,0-4.5,0-6.7,0c-0.5,0-0.6-0.1-0.6-0.6c0-12.7,0-25.4,0-38.1
	c0-0.4,0.1-0.6,0.6-0.6c2.3,0,4.7,0,7,0c0.4,0,0.6,0.1,0.5,0.5C363.3,220.2,363.4,221.6,363.4,223.2z" class="st2"></path>
<path d="M428.7,258.8c-6.3,0.1-11.8-2.1-16.5-6.2c-0.3-0.3-0.4-0.4-0.2-0.8c1-1.7,1.9-3.5,2.9-5.2
	c0.2-0.4,0.3-0.5,0.8-0.2c2.7,2.2,5.5,4.1,8.9,4.9c3.1,0.8,6.2,1,9.2-0.4c1.9-0.9,3.1-2.2,3.2-4.4c0-1.5-0.6-2.5-1.9-3.2
	c-2.1-1.1-4.4-1.6-6.8-2.1c-2.9-0.6-5.8-1.4-8.5-2.6c-4.9-2.2-6.8-5.8-6.2-10.9c0.6-5.2,3.7-8.6,9.2-10c6.2-1.6,12.1-0.8,17.7,2.5
	c0.8,0.5,1.7,1.1,2.5,1.6c0.4,0.2,0.4,0.4,0.2,0.8c-0.9,1.8-1.9,3.5-2.8,5.3c-0.2,0.4-0.4,0.4-0.7,0.2c-2.1-1.5-4.3-3-6.9-3.7
	c-2.7-0.7-5.5-0.9-8.2,0.2c-1.9,0.8-3.2,2-3.2,4.2c0,1.4,0.6,2.3,1.8,2.9c2.3,1.1,4.7,1.8,7.3,2.3c3.1,0.6,6.2,1.4,9,2.9
	c3.7,1.8,5.3,4.9,5.3,9c0,3.2-1,6-3.1,8.5c-2,2.2-4.6,3.3-7.4,4C432.5,258.6,430.6,258.8,428.7,258.8z" class="st2"></path>
<path d="M257.1,247c0.4,0.9,0.9,1.8,1.3,2.7c0.5,1.1,1.1,2.3,1.7,3.4c0.2,0.4,0.2,0.7-0.2,1c-3.5,2.8-7.6,4.3-12.1,4.6
	c-5.1,0.3-9.9-0.6-14.1-3.4c-4.8-3.2-7.3-7.8-8.2-13.4c-0.7-4.6-0.3-9.2,1.7-13.5c2.8-6.3,7.8-9.9,14.4-11.1c4.8-0.9,9.5-0.4,14,1.7
	c1.6,0.7,3.1,1.7,4.5,2.8c0.3,0.2,0.3,0.4,0.2,0.7c-0.9,1.9-1.9,3.8-2.8,5.7c-0.2,0.4-0.3,0.5-0.8,0.2c-2.5-1.9-5.2-3.3-8.3-3.7
	c-3.8-0.4-7.4,0-10.5,2.6c-2.1,1.8-3.2,4.1-3.8,6.7c-0.7,3.3-0.6,6.5,0.6,9.7c1.7,4.3,4.9,6.6,9.4,7.2c4.7,0.6,8.9-0.7,12.7-3.7
	C256.7,247.2,256.9,247.1,257.1,247z" class="st2"></path>
<path d="M398.5,237.9c0-6.3,0-12.6,0-19c0-0.6,0.2-0.7,0.7-0.7c2.3,0,4.6,0,6.9,0c0.4,0,0.6,0.1,0.6,0.5
	c0,12.8,0,25.5,0,38.3c0,0.4-0.1,0.5-0.5,0.5c-2.4,0-4.7,0-7.1,0c-0.6,0-0.5-0.3-0.5-0.7C398.5,250.6,398.5,244.2,398.5,237.9z" class="st2"></path>
<path d="M397.3,207.1c0-3,2.4-5.5,5.3-5.5c3,0,5.4,2.5,5.4,5.5c0,3-2.5,5.5-5.4,5.5
	C399.7,212.7,397.3,210.1,397.3,207.1z" class="st2"></path>
</svg>
