<svg xmlns="http://www.w3.org/2000/svg" fill="none" viewBox="0 0 244 32" height="32" width="244">
<path fill="#001C33" d="M74.3001 3.54449L68.5731 3.55049L68.6022 31.3992L74.3293 31.3932L74.3001 3.54449Z"></path>
<path fill="#001C33" d="M90.9569 0C89.0405 0 87.4896 1.573 87.4896 3.51155C87.4896 5.4501 89.0405 7.03418 90.9569 7.03418C92.8733 7.03418 94.4241 5.46118 94.4352 3.52263C94.4241 1.573 92.8622 0 90.9569 0Z"></path>
<path fill="#001C33" d="M93.8031 9.90468L88.076 9.91068L88.0986 31.4009L93.8256 31.3949L93.8031 9.90468Z"></path>
<path fill="#001C33" d="M50.2473 3.52261L39.48 31.3935H45.7942L47.6774 26.1095H58.6108L60.5272 31.3935H66.9632L55.8525 3.52261H50.2362H50.2473ZM49.5273 20.8588L53.1164 10.8891L56.7387 20.8588H49.5273Z"></path>
<path fill="#001C33" d="M84.0483 3.54535L78.3212 3.55135L78.3504 31.4L84.0774 31.394L84.0483 3.54535Z"></path>
<path fill="#001C33" d="M107.916 14.7773C110.066 14.7773 111.816 15.9294 112.979 17.2365L116.956 13.9687C114.109 9.99186 109.057 8.31916 104.449 9.83677C99.841 11.3544 96.7061 15.7078 96.7061 20.6262C96.7061 25.5446 99.8189 29.9091 104.427 31.4378C109.035 32.9665 114.087 31.3049 116.945 27.3391L112.99 23.9494C112.059 25.1458 110.187 26.5637 107.972 26.5637C104.903 26.5637 102.544 23.8941 102.544 20.6484C102.544 17.4027 104.859 14.7773 107.916 14.7773Z"></path>
<path fill="#001C33" d="M135.71 11.9083C133.793 10.1802 131.301 9.24967 128.742 9.2829C122.361 9.2829 117.631 14.1016 117.631 20.6041C117.631 27.1065 122.373 31.9917 128.742 31.9917C131.268 32.0138 133.705 31.1055 135.61 29.4328L136.109 31.3603H140.595V9.85893H136.319L135.721 11.9083H135.71ZM129.207 26.4973C125.884 26.4973 123.436 23.9716 123.436 20.6041C123.436 17.2365 125.873 14.7109 129.207 14.7109C132.542 14.7109 134.979 17.2254 134.979 20.6041C134.979 23.9827 132.531 26.4973 129.207 26.4973Z"></path>
<path fill="#FF6F02" d="M0 17.7793C0 25.6332 6.28091 32.0027 14.024 31.9917C21.7672 31.9917 28.037 25.6332 28.0481 17.7793V3.54478H0V17.7793Z"></path>
<path fill="#001C33" d="M167.358 16.7048C169.286 15.3423 170.438 13.1046 170.449 10.7119C170.449 6.62432 166.937 3.56694 162.207 3.56694H150.875V31.3713H162.517C167.281 31.3713 171.147 27.8155 171.147 23.3513C171.147 20.4157 169.773 18.0009 167.358 16.7159V16.7048ZM156.702 8.6958H161.642C163.503 8.6958 164.688 9.91432 164.7 11.6535C164.7 13.4037 163.514 14.6222 161.642 14.6222H156.702V8.70688V8.6958ZM161.963 25.8548H156.691V19.6182H161.963C163.913 19.6182 165.198 20.9364 165.198 22.7198C165.198 24.5033 163.913 25.8548 161.963 25.8548Z"></path>
<path fill="#001C33" d="M191.308 11.9526C189.402 10.2356 186.932 9.29399 184.373 9.32722C178.015 9.32722 173.296 14.1238 173.296 20.6041C173.296 27.0844 178.015 31.9474 184.373 31.9474C186.888 31.9695 189.314 31.0612 191.208 29.3885L191.695 31.3049H196.171V9.90325H191.906L191.308 11.9526ZM190.576 20.6151C190.576 23.9716 188.15 26.4751 184.827 26.4751C181.504 26.4751 179.078 23.9605 179.078 20.6041C179.078 17.2476 181.504 14.7441 184.827 14.7441C188.15 14.7441 190.576 17.2365 190.576 20.6041V20.6151Z"></path>
<path fill="#001C33" d="M212.277 9.36044C210.904 9.36044 209.541 9.64846 208.3 10.2134C207.137 10.7451 206.107 11.5316 205.287 12.5286L204.722 11.1993L204.168 9.87001H200.247V31.3603H205.952V20.0613C205.952 18.3332 206.406 16.9263 207.215 15.9626C208.035 14.9989 209.22 14.4561 210.682 14.4561C211.912 14.4561 212.842 14.8327 213.451 15.6414C214.061 16.45 214.36 17.6575 214.36 19.2748V31.3603H220.065V18.3332C220.065 15.6081 219.334 13.3705 217.982 11.7975C216.631 10.2245 214.67 9.34937 212.277 9.34937V9.36044Z"></path>
<path fill="#001C33" d="M243.538 31.3381L239.583 25.7218L235.639 20.1166L239.206 15.0099L242.751 9.91432H236.182L233.014 14.6665L229.846 19.4298V1.68378H224.141V31.3381H229.846V21.0915L233.236 26.2092L236.614 31.327V31.3381H243.538Z"></path>
</svg>
