<svg xmlns="http://www.w3.org/2000/svg" fill="none" viewBox="0 0 227 58" height="58" width="227">
<path fill="#00F096" d="M51.7391 43.6693C48.413 40.2816 38.3423 30.2418 38.3423 30.2418C35.9402 27.7164 35.663 23.7436 37.8804 20.9411C38.8351 19.74 40.067 18.9393 41.4221 18.5389C41.7916 18.4465 42.192 18.3541 42.5923 18.2925C45.7028 17.7382 47.951 17.3994 50.1068 15.0896C53.6485 11.24 53.0633 5.11137 48.8749 1.87767C45.3025 -0.894064 40.1902 -0.555296 36.9873 2.6168C35.0471 4.55702 34.3079 7.54434 34.3079 9.60774C34.3079 11.9175 33.692 14.2581 32.0289 16.1367C30.3659 17.9845 27.9329 18.7853 25.8387 19.1548C24.0833 19.4628 21.7119 20.3867 20.2645 21.8342C16.6612 25.4682 16.6612 31.3197 20.2645 34.9537L40.375 55.095C43.5163 58.2363 48.5978 58.2363 51.7083 55.095C54.8804 51.8921 54.8804 46.8722 51.7391 43.6693V43.6693Z"></path>
<path fill="#00F096" d="M125.59 42.5299H127.531C128.208 42.5299 128.763 41.9755 128.763 41.298V29.1023C128.855 24.3288 131.504 21.4955 135.784 21.4955C138.186 21.4955 142.252 22.4194 142.252 28.6712V41.2672C142.252 41.9447 142.806 42.4991 143.484 42.4991H145.424C146.101 42.4991 146.656 41.9447 146.656 41.2672V27.5933C146.656 24.0208 144.839 17.5842 136.893 17.5842C133.197 17.5842 130.364 19.0933 128.701 21.9882V19.1549C128.701 18.4773 128.147 17.923 127.469 17.923H125.529C124.851 17.923 124.297 18.4773 124.297 19.1549V41.2672C124.328 41.9447 124.882 42.5299 125.59 42.5299Z"></path>
<path fill="#00F096" d="M108.375 42.8071C115.766 42.8071 118.846 36.894 118.846 36.894C119.246 36.3397 119.092 35.5389 118.507 35.1694L117.46 34.4302C116.567 33.9067 115.951 34.3995 115.735 34.769C115.735 34.769 113.148 39.0806 108.375 39.0806C103.601 39.0806 100.429 36.0009 100.121 31.5353H118.045C118.754 31.5353 119.369 31.2889 119.739 30.8886C120.109 30.4882 120.263 29.9031 120.201 29.2255C119.585 22.2038 114.811 17.6766 108.005 17.6766C101.199 17.6766 95.7173 23.0969 95.7173 30.2726C95.7173 37.6331 100.953 42.8071 108.375 42.8071ZM108.005 21.3107C112.317 21.3107 115.52 24.1748 115.889 28.3016H100.121C100.429 24.2364 103.725 21.3107 108.005 21.3107V21.3107Z"></path>
<path fill="#00F096" d="M74.2209 41.2672C74.2209 41.9447 74.7753 42.4991 75.4528 42.4991H77.2391C77.9166 42.4991 78.4709 41.9447 78.4709 41.2672V31.5969C78.4709 31.4429 78.5633 31.3813 78.6249 31.3813C78.6557 31.3813 78.7789 31.3197 78.9021 31.4121L90.759 42.3759C91.1593 42.7763 92.1449 43.0842 92.9148 42.2835L93.6231 41.5136C94.3314 40.8052 94.0543 39.8505 93.5307 39.3578L82.8133 29.5643C82.7517 29.5027 82.7209 29.4411 82.7209 29.3795C82.7209 29.3179 82.7517 29.2563 82.8133 29.1947L93.4383 20.7871C94.1159 20.2636 94.239 19.3089 93.7155 18.6313L93.2843 18.0462C93.038 17.7074 92.1448 17.0299 91.1285 17.769L78.9021 27.3777C78.8405 27.4393 78.7173 27.4393 78.6557 27.4085C78.5633 27.3777 78.5325 27.2853 78.5325 27.1929V12.7491C78.5325 12.0716 77.9782 11.5172 77.3007 11.5172H75.4528C74.7753 11.5172 74.2209 12.0716 74.2209 12.7491V41.2672V41.2672Z"></path>
<path fill="#00F096" d="M153.123 42.5299H155.063C155.741 42.5299 156.295 41.9755 156.295 41.298V29.1023C156.388 24.3596 159.005 21.4955 163.317 21.4955C165.719 21.4955 169.784 22.4194 169.784 28.6712V41.2672C169.784 41.9447 170.339 42.4991 171.016 42.4991H172.956C173.634 42.4991 174.188 41.9447 174.188 41.2672V27.5933C174.188 24.0208 172.371 17.5842 164.426 17.5842C160.73 17.5842 157.897 19.0933 156.234 21.9882V19.1549C156.234 18.4773 155.679 17.923 155.002 17.923H153.061C152.384 17.923 151.83 18.4773 151.83 19.1549V41.2672C151.891 41.9447 152.446 42.5299 153.123 42.5299V42.5299Z"></path>
<path fill="#00F096" d="M191.219 42.8071C198.61 42.8071 201.69 36.894 201.69 36.894C202.09 36.3397 201.936 35.5389 201.351 35.1694L200.304 34.4302C199.411 33.9067 198.795 34.3995 198.58 34.769C198.58 34.769 195.993 39.0806 191.219 39.0806C186.446 39.0806 183.273 36.0009 182.965 31.5353H200.889C201.598 31.5353 202.214 31.2889 202.583 30.8886C202.953 30.4882 203.107 29.9031 203.045 29.2255C202.429 22.2038 197.656 17.6766 190.85 17.6766C184.043 17.6766 178.561 23.0969 178.561 30.2726C178.531 37.6331 183.766 42.8071 191.219 42.8071V42.8071ZM190.85 21.3107C195.161 21.3107 198.364 24.1748 198.734 28.3016H182.935C183.273 24.2364 186.569 21.3107 190.85 21.3107V21.3107Z"></path>
<path fill="#00F096" d="M15.9837 34.9538C14.3206 33.2599 13.2735 30.9194 13.2735 28.3632C13.2735 25.807 14.3206 23.4665 15.9837 21.7726C17.6775 20.0788 18.7554 17.7074 18.7554 15.1204C18.7554 9.94654 14.567 5.72734 9.39311 5.72734C4.1884 5.69654 0 9.91574 0 15.0897C0 17.6766 1.0471 20.048 2.77174 21.7418C4.43478 23.4357 5.48188 25.7762 5.48188 28.3324C5.48188 30.8886 4.43478 33.2291 2.77174 34.923C1.0779 36.6168 0 38.9882 0 41.5751C0 46.7491 4.1884 50.9683 9.36231 50.9683C14.5362 50.9683 18.7246 46.7799 18.7246 41.5751C18.7246 38.9882 17.6775 36.6476 15.9837 34.9538Z"></path>
<path fill="#00F096" d="M207.172 41.2672C207.172 41.9447 207.726 42.4991 208.404 42.4991H210.19C210.868 42.4991 211.422 41.9447 211.422 41.2672V31.5969C211.422 31.4429 211.514 31.3813 211.576 31.3813C211.607 31.3813 211.73 31.3197 211.853 31.4121L223.71 42.3759C224.11 42.7763 225.096 43.0842 225.866 42.2835L226.574 41.5136C227.282 40.8052 227.005 39.8505 226.482 39.3578L215.764 29.5643C215.703 29.5027 215.672 29.4411 215.672 29.3795C215.672 29.3179 215.703 29.2563 215.764 29.1947L226.389 20.7871C227.067 20.2636 227.19 19.3089 226.667 18.6313L226.235 18.0462C225.989 17.7074 225.096 17.0299 224.08 17.769L211.853 27.3777C211.792 27.4393 211.668 27.4393 211.607 27.4085C211.514 27.3777 211.484 27.2853 211.484 27.1929V12.7491C211.484 12.0716 210.929 11.5172 210.252 11.5172H208.465C207.788 11.5172 207.234 12.0716 207.234 12.7491L207.172 41.2672Z"></path>
</svg>
