<svg xmlns="http://www.w3.org/2000/svg" fill="none" viewBox="0 0 110 44" height="44" width="110">
<path fill="url(#paint0_linear_29_355)" d="M26.8649 34.1993H32.9098V0H26.8649V34.1993ZM11.9565 29.6904C15.9475 29.6904 18.0517 26.1838 18.0517 21.3745C18.0517 16.5986 15.9809 13.1754 11.9565 13.1754C8.06552 13.1754 5.92802 16.3982 5.92802 21.3745C5.92802 26.3507 8.09907 29.6904 11.9565 29.6904ZM0 8.54972H5.94479V12.7913H6.29558C7.21394 10.9376 9.10081 8.2157 13.6263 8.2157C19.5545 8.2157 24.2134 12.858 24.2134 21.4078C24.2134 29.8574 19.688 34.6502 13.6431 34.6502C9.23463 34.6502 7.24733 32.0285 6.29558 30.158H6.04495V43.8179H0V8.54972ZM51.509 21.9756V24.9981C51.509 27.8536 49.2046 30.275 45.564 30.275C43.0427 30.275 41.2392 29.1226 41.2392 26.9019C41.2392 24.5807 43.2598 23.6121 45.965 23.228L46.2348 23.1912C47.8866 22.9671 50.7663 22.5761 51.509 21.9756ZM45.1468 19.2036C40.1705 19.738 35.4114 21.2242 35.4114 27.0019C35.4114 32.0451 39.1019 34.717 43.9946 34.717C48.0189 34.717 50.4235 32.8299 51.5256 30.6758H51.7261V34.1992H57.5373V17.0327C57.5373 10.253 52.01 8.21578 47.1171 8.21578C41.7234 8.21578 37.5821 10.6202 36.2461 15.2962L41.8905 16.0976C42.4918 14.3441 44.1949 12.8413 47.1505 12.8413C49.956 12.8413 51.4924 14.2775 51.4924 16.7989V16.8992C51.4924 18.5336 49.88 18.7037 45.9176 19.1219C45.6699 19.1481 45.413 19.1751 45.1468 19.2036ZM63.1048 13.5202V8.51054H86.193V8.97559L76.8838 20.9696L72.7489 17.6764L75.8961 13.7373V13.5202H63.1048ZM73.6159 25.1799L70.7027 28.9332V29.1504H83.728V34.1601H59.9385V33.7094L69.4222 21.8398L73.6159 25.1799ZM97.7434 13.0084C101.834 13.0084 103.872 16.7655 103.872 21.4579C103.872 26.1503 101.834 29.8575 97.7434 29.8575C93.5847 29.8575 91.548 26.1503 91.548 21.4579C91.548 16.7655 93.5847 13.0084 97.7434 13.0084ZM97.7094 8.21579C90.1953 8.21579 85.4193 13.526 85.4193 21.4745C85.4193 29.4067 90.1953 34.7002 97.7094 34.7002C105.224 34.7002 110 29.4067 110 21.4745C110 13.526 105.224 8.21579 97.7094 8.21579Z" clip-rule="evenodd" fill-rule="evenodd"></path>
<defs>
<linearGradient gradientUnits="userSpaceOnUse" y2="97.5433" x2="-24.8718" y1="21.9089" x1="-55.0001" id="paint0_linear_29_355">
<stop stop-color="#ADE92C"></stop>
<stop stop-color="#9FDC15" offset="0.499808"></stop>
<stop stop-color="#91CF00" offset="1"></stop>
</linearGradient>
</defs>
</svg>
