<svg version="1.0" preserveAspectRatio="xMidYMid meet" height="85" viewBox="0 0 63 63.749997" zoomAndPan="magnify" width="84" xmlns:xlink="http://www.w3.org/1999/xlink" xmlns="http://www.w3.org/2000/svg"><defs><clipPath id="94fc9e743e"><path clip-rule="nonzero" d="M 0.125 1 L 62 1 L 62 62.851562 L 0.125 62.851562 Z M 0.125 1"></path></clipPath><clipPath id="f0df1b820e"><path clip-rule="nonzero" d="M 0.125 0.375 L 62.601562 0.375 L 62.601562 62.851562 L 0.125 62.851562 Z M 0.125 0.375"></path></clipPath><clipPath id="075d32bdc9"><path clip-rule="nonzero" d="M 25 19 L 43 19 L 43 44 L 25 44 Z M 25 19"></path></clipPath><clipPath id="7302348bb1"><path clip-rule="nonzero" d="M 25.550781 21.773438 L 25.550781 41.449219 C 25.550781 43.34375 27.730469 44.402344 29.21875 43.234375 L 41.886719 33.285156 C 43.050781 32.371094 43.042969 30.605469 41.867188 29.703125 L 29.199219 19.976562 C 27.707031 18.828125 25.550781 19.894531 25.550781 21.773438 Z M 25.550781 21.773438"></path></clipPath><linearGradient id="48971f4f6c" y2="76.902469" gradientUnits="userSpaceOnUse" x2="160.105861" y1="126.988837" gradientTransform="matrix(0.278906, 0, 0, 0.278906, 0.123048, 0.373534)" x1="73.347751"><stop offset="0" stop-color="rgb(2.923584%, 46.424866%, 44.013977%)" stop-opacity="1"></stop><stop offset="0.00390625" stop-color="rgb(3.149414%, 46.650696%, 43.84613%)" stop-opacity="1"></stop><stop offset="0.0078125" stop-color="rgb(3.375244%, 46.876526%, 43.67981%)" stop-opacity="1"></stop><stop offset="0.0117188" stop-color="rgb(3.601074%, 47.102356%, 43.511963%)" stop-opacity="1"></stop><stop offset="0.015625" stop-color="rgb(3.826904%, 47.328186%, 43.345642%)" stop-opacity="1"></stop><stop offset="0.0195313" stop-color="rgb(4.052734%, 47.554016%, 43.177795%)" stop-opacity="1"></stop><stop offset="0.0234375" stop-color="rgb(4.278564%, 47.779846%, 43.009949%)" stop-opacity="1"></stop><stop offset="0.0273438" stop-color="rgb(4.50592%, 48.00415%, 42.843628%)" stop-opacity="1"></stop><stop offset="0.03125" stop-color="rgb(4.733276%, 48.228455%, 42.678833%)" stop-opacity="1"></stop><stop offset="0.0351562" stop-color="rgb(4.971313%, 48.432922%, 42.532349%)" stop-opacity="1"></stop><stop offset="0.0390625" stop-color="rgb(5.209351%, 48.63739%, 42.385864%)" stop-opacity="1"></stop><stop offset="0.0429688" stop-color="rgb(5.447388%, 48.841858%, 42.23938%)" stop-opacity="1"></stop><stop offset="0.046875" stop-color="rgb(5.686951%, 49.047852%, 42.092896%)" stop-opacity="1"></stop><stop offset="0.0507812" stop-color="rgb(5.924988%, 49.252319%, 41.946411%)" stop-opacity="1"></stop><stop offset="0.0546875" stop-color="rgb(6.163025%, 49.458313%, 41.799927%)" stop-opacity="1"></stop><stop offset="0.0585938" stop-color="rgb(6.401062%, 49.662781%, 41.653442%)" stop-opacity="1"></stop><stop offset="0.0625" stop-color="rgb(6.640625%, 49.867249%, 41.506958%)" stop-opacity="1"></stop><stop offset="0.0664062" stop-color="rgb(6.878662%, 50.071716%, 41.360474%)" stop-opacity="1"></stop><stop offset="0.0703125" stop-color="rgb(7.116699%, 50.27771%, 41.213989%)" stop-opacity="1"></stop><stop offset="0.0742188" stop-color="rgb(7.354736%, 50.482178%, 41.067505%)" stop-opacity="1"></stop><stop offset="0.078125" stop-color="rgb(7.594299%, 50.688171%, 40.922546%)" stop-opacity="1"></stop><stop offset="0.0820312" stop-color="rgb(7.832336%, 50.892639%, 40.776062%)" stop-opacity="1"></stop><stop offset="0.0859375" stop-color="rgb(8.070374%, 51.097107%, 40.629578%)" stop-opacity="1"></stop><stop offset="0.0898438" stop-color="rgb(8.308411%, 51.301575%, 40.483093%)" stop-opacity="1"></stop><stop offset="0.09375" stop-color="rgb(8.547974%, 51.507568%, 40.336609%)" stop-opacity="1"></stop><stop offset="0.0976562" stop-color="rgb(8.786011%, 51.712036%, 40.190125%)" stop-opacity="1"></stop><stop offset="0.101562" stop-color="rgb(9.024048%, 51.916504%, 40.04364%)" stop-opacity="1"></stop><stop offset="0.105469" stop-color="rgb(9.262085%, 52.120972%, 39.897156%)" stop-opacity="1"></stop><stop offset="0.109375" stop-color="rgb(9.501648%, 52.326965%, 39.750671%)" stop-opacity="1"></stop><stop offset="0.113281" stop-color="rgb(9.739685%, 52.531433%, 39.604187%)" stop-opacity="1"></stop><stop offset="0.117188" stop-color="rgb(9.977722%, 52.737427%, 39.457703%)" stop-opacity="1"></stop><stop offset="0.121094" stop-color="rgb(10.215759%, 52.941895%, 39.311218%)" stop-opacity="1"></stop><stop offset="0.125" stop-color="rgb(10.455322%, 53.146362%, 39.164734%)" stop-opacity="1"></stop><stop offset="0.128906" stop-color="rgb(10.693359%, 53.35083%, 39.01825%)" stop-opacity="1"></stop><stop offset="0.132813" stop-color="rgb(10.931396%, 53.556824%, 38.871765%)" stop-opacity="1"></stop><stop offset="0.136719" stop-color="rgb(11.169434%, 53.761292%, 38.725281%)" stop-opacity="1"></stop><stop offset="0.140625" stop-color="rgb(11.408997%, 53.967285%, 38.580322%)" stop-opacity="1"></stop><stop offset="0.144531" stop-color="rgb(11.647034%, 54.171753%, 38.433838%)" stop-opacity="1"></stop><stop offset="0.148438" stop-color="rgb(11.885071%, 54.376221%, 38.287354%)" stop-opacity="1"></stop><stop offset="0.152344" stop-color="rgb(12.123108%, 54.580688%, 38.140869%)" stop-opacity="1"></stop><stop offset="0.15625" stop-color="rgb(12.362671%, 54.786682%, 37.994385%)" stop-opacity="1"></stop><stop offset="0.160156" stop-color="rgb(12.600708%, 54.99115%, 37.8479%)" stop-opacity="1"></stop><stop offset="0.164063" stop-color="rgb(12.838745%, 55.197144%, 37.701416%)" stop-opacity="1"></stop><stop offset="0.167969" stop-color="rgb(13.076782%, 55.401611%, 37.554932%)" stop-opacity="1"></stop><stop offset="0.171875" stop-color="rgb(13.316345%, 55.606079%, 37.408447%)" stop-opacity="1"></stop><stop offset="0.175781" stop-color="rgb(13.554382%, 55.810547%, 37.261963%)" stop-opacity="1"></stop><stop offset="0.179688" stop-color="rgb(13.792419%, 56.016541%, 37.115479%)" stop-opacity="1"></stop><stop offset="0.183594" stop-color="rgb(14.030457%, 56.221008%, 36.968994%)" stop-opacity="1"></stop><stop offset="0.1875" stop-color="rgb(14.27002%, 56.425476%, 36.82251%)" stop-opacity="1"></stop><stop offset="0.191406" stop-color="rgb(14.508057%, 56.629944%, 36.676025%)" stop-opacity="1"></stop><stop offset="0.195312" stop-color="rgb(14.746094%, 56.835938%, 36.529541%)" stop-opacity="1"></stop><stop offset="0.199219" stop-color="rgb(14.984131%, 57.040405%, 36.383057%)" stop-opacity="1"></stop><stop offset="0.203125" stop-color="rgb(15.223694%, 57.246399%, 36.236572%)" stop-opacity="1"></stop><stop offset="0.207031" stop-color="rgb(15.461731%, 57.450867%, 36.090088%)" stop-opacity="1"></stop><stop offset="0.210938" stop-color="rgb(15.699768%, 57.655334%, 35.945129%)" stop-opacity="1"></stop><stop offset="0.214844" stop-color="rgb(15.927124%, 57.852173%, 35.806274%)" stop-opacity="1"></stop><stop offset="0.21875" stop-color="rgb(16.15448%, 58.050537%, 35.667419%)" stop-opacity="1"></stop><stop offset="0.226562" stop-color="rgb(16.325378%, 58.206177%, 35.568237%)" stop-opacity="1"></stop><stop offset="0.234375" stop-color="rgb(16.668701%, 58.520508%, 35.371399%)" stop-opacity="1"></stop><stop offset="0.242188" stop-color="rgb(17.012024%, 58.834839%, 35.174561%)" stop-opacity="1"></stop><stop offset="0.25" stop-color="rgb(17.355347%, 59.147644%, 34.979248%)" stop-opacity="1"></stop><stop offset="0.257812" stop-color="rgb(17.697144%, 59.461975%, 34.78241%)" stop-opacity="1"></stop><stop offset="0.265625" stop-color="rgb(18.040466%, 59.77478%, 34.585571%)" stop-opacity="1"></stop><stop offset="0.273438" stop-color="rgb(18.383789%, 60.089111%, 34.388733%)" stop-opacity="1"></stop><stop offset="0.28125" stop-color="rgb(18.727112%, 60.401917%, 34.191895%)" stop-opacity="1"></stop><stop offset="0.289062" stop-color="rgb(19.070435%, 60.716248%, 33.995056%)" stop-opacity="1"></stop><stop offset="0.296875" stop-color="rgb(19.412231%, 61.030579%, 33.799744%)" stop-opacity="1"></stop><stop offset="0.304688" stop-color="rgb(19.755554%, 61.343384%, 33.602905%)" stop-opacity="1"></stop><stop offset="0.3125" stop-color="rgb(20.098877%, 61.657715%, 33.406067%)" stop-opacity="1"></stop><stop offset="0.320312" stop-color="rgb(20.4422%, 61.97052%, 33.209229%)" stop-opacity="1"></stop><stop offset="0.328125" stop-color="rgb(20.783997%, 62.284851%, 33.01239%)" stop-opacity="1"></stop><stop offset="0.335938" stop-color="rgb(21.127319%, 62.599182%, 32.815552%)" stop-opacity="1"></stop><stop offset="0.34375" stop-color="rgb(21.470642%, 62.911987%, 32.620239%)" stop-opacity="1"></stop><stop offset="0.351562" stop-color="rgb(21.813965%, 63.226318%, 32.423401%)" stop-opacity="1"></stop><stop offset="0.359375" stop-color="rgb(22.155762%, 63.539124%, 32.226562%)" stop-opacity="1"></stop><stop offset="0.367188" stop-color="rgb(22.499084%, 63.853455%, 32.029724%)" stop-opacity="1"></stop><stop offset="0.375" stop-color="rgb(22.842407%, 64.167786%, 31.832886%)" stop-opacity="1"></stop><stop offset="0.382812" stop-color="rgb(23.18573%, 64.480591%, 31.636047%)" stop-opacity="1"></stop><stop offset="0.390625" stop-color="rgb(23.529053%, 64.794922%, 31.440735%)" stop-opacity="1"></stop><stop offset="0.398438" stop-color="rgb(23.87085%, 65.107727%, 31.243896%)" stop-opacity="1"></stop><stop offset="0.40625" stop-color="rgb(24.197388%, 65.405273%, 31.054688%)" stop-opacity="1"></stop><stop offset="0.414062" stop-color="rgb(24.453735%, 65.640259%, 30.892944%)" stop-opacity="1"></stop><stop offset="0.421875" stop-color="rgb(24.658203%, 65.827942%, 30.754089%)" stop-opacity="1"></stop><stop offset="0.429688" stop-color="rgb(24.864197%, 66.015625%, 30.613708%)" stop-opacity="1"></stop><stop offset="0.4375" stop-color="rgb(25.068665%, 66.203308%, 30.474854%)" stop-opacity="1"></stop><stop offset="0.445313" stop-color="rgb(25.274658%, 66.390991%, 30.334473%)" stop-opacity="1"></stop><stop offset="0.453125" stop-color="rgb(25.479126%, 66.578674%, 30.195618%)" stop-opacity="1"></stop><stop offset="0.457611" stop-color="rgb(25.68512%, 66.766357%, 30.055237%)" stop-opacity="1"></stop><stop offset="0.460938" stop-color="rgb(25.787354%, 66.860962%, 29.986572%)" stop-opacity="1"></stop><stop offset="0.46875" stop-color="rgb(25.889587%, 66.954041%, 29.916382%)" stop-opacity="1"></stop><stop offset="0.476563" stop-color="rgb(26.094055%, 67.141724%, 29.776001%)" stop-opacity="1"></stop><stop offset="0.484375" stop-color="rgb(26.300049%, 67.329407%, 29.637146%)" stop-opacity="1"></stop><stop offset="0.492188" stop-color="rgb(26.504517%, 67.51709%, 29.496765%)" stop-opacity="1"></stop><stop offset="0.5" stop-color="rgb(26.71051%, 67.704773%, 29.35791%)" stop-opacity="1"></stop><stop offset="0.507813" stop-color="rgb(26.914978%, 67.892456%, 29.217529%)" stop-opacity="1"></stop><stop offset="0.515625" stop-color="rgb(27.120972%, 68.080139%, 29.077148%)" stop-opacity="1"></stop><stop offset="0.523438" stop-color="rgb(27.325439%, 68.267822%, 28.938293%)" stop-opacity="1"></stop><stop offset="0.53125" stop-color="rgb(27.529907%, 68.455505%, 28.797913%)" stop-opacity="1"></stop><stop offset="0.539063" stop-color="rgb(27.735901%, 68.643188%, 28.659058%)" stop-opacity="1"></stop><stop offset="0.542389" stop-color="rgb(27.940369%, 68.830872%, 28.518677%)" stop-opacity="1"></stop><stop offset="0.546875" stop-color="rgb(28.044128%, 68.925476%, 28.450012%)" stop-opacity="1"></stop><stop offset="0.554688" stop-color="rgb(28.146362%, 69.018555%, 28.379822%)" stop-opacity="1"></stop><stop offset="0.5625" stop-color="rgb(28.35083%, 69.206238%, 28.239441%)" stop-opacity="1"></stop><stop offset="0.570313" stop-color="rgb(28.556824%, 69.393921%, 28.100586%)" stop-opacity="1"></stop><stop offset="0.578125" stop-color="rgb(28.761292%, 69.581604%, 27.960205%)" stop-opacity="1"></stop><stop offset="0.59375" stop-color="rgb(28.990173%, 69.784546%, 27.824402%)" stop-opacity="1"></stop><stop offset="0.625" stop-color="rgb(29.290771%, 70.031738%, 27.697754%)" stop-opacity="1"></stop><stop offset="0.65625" stop-color="rgb(29.640198%, 70.310974%, 27.574158%)" stop-opacity="1"></stop><stop offset="0.6875" stop-color="rgb(29.988098%, 70.59021%, 27.452087%)" stop-opacity="1"></stop><stop offset="0.71875" stop-color="rgb(30.337524%, 70.869446%, 27.330017%)" stop-opacity="1"></stop><stop offset="0.75" stop-color="rgb(30.686951%, 71.148682%, 27.207947%)" stop-opacity="1"></stop><stop offset="1" stop-color="rgb(30.931091%, 71.343994%, 27.122498%)" stop-opacity="1"></stop></linearGradient><clipPath id="0038d84611"><path clip-rule="nonzero" d="M 5 0.375 L 62.601562 0.375 L 62.601562 62.851562 L 5 62.851562 Z M 5 0.375"></path></clipPath></defs><g clip-path="url(#94fc9e743e)"><path fill-rule="nonzero" fill-opacity="1" d="M 26.84375 62.152344 L 24.820312 54.167969 L 24.792969 54.160156 L 24.714844 54.117188 C 23.183594 53.679688 21.703125 53.074219 20.320312 52.320312 L 14.355469 55.886719 L 13.191406 56.589844 L 6.5625 50.027344 L 10.765625 42.914062 C 10.011719 41.507812 9.402344 40.070312 8.957031 38.582031 L 8.933594 38.496094 L 8.917969 38.410156 L 2.191406 36.75 L 0.863281 36.425781 L 0.820312 27.101562 L 8.8125 25.074219 L 8.820312 25.042969 L 8.867188 24.960938 C 9.300781 23.4375 9.902344 21.957031 10.660156 20.570312 L 7.089844 14.613281 L 6.386719 13.445312 L 12.949219 6.8125 L 20.066406 11.019531 C 21.460938 10.269531 22.90625 9.65625 24.414062 9.199219 L 24.488281 9.175781 L 24.5625 9.160156 L 26.226562 2.4375 L 26.550781 1.109375 L 35.882812 1.066406 L 37.898438 9.054688 C 37.898438 9.054688 37.925781 9.082031 37.960938 9.09375 C 39.535156 9.542969 40.976562 10.136719 42.4375 10.925781 L 48.367188 7.347656 L 49.535156 6.636719 L 56.167969 13.203125 L 51.960938 20.316406 C 52.710938 21.722656 53.320312 23.164062 53.769531 24.652344 L 53.792969 24.726562 L 53.808594 24.800781 L 60.535156 26.476562 L 61.863281 26.800781 L 61.910156 36.125 L 53.914062 38.152344 C 53.914062 38.152344 53.886719 38.175781 53.878906 38.210938 C 53.4375 39.769531 52.84375 41.210938 52.042969 42.679688 L 55.636719 48.613281 L 56.351562 49.78125 L 49.78125 56.410156 L 42.671875 52.207031 C 41.269531 52.960938 39.832031 53.570312 38.347656 54.015625 L 38.261719 54.039062 L 38.175781 54.058594 L 36.503906 60.777344 L 36.183594 62.105469 L 26.851562 62.152344 Z M 26.84375 62.152344" fill="#ffffff"></path></g><g clip-path="url(#f0df1b820e)"><path stroke-miterlimit="4" stroke-opacity="1" stroke-width="5" stroke="#212121" d="M 95.805328 221.503882 L 88.550426 192.876427 L 88.452386 192.848416 L 88.172274 192.694355 C 82.682077 191.125727 77.373954 188.954858 72.41597 186.251777 L 51.029413 199.038893 L 46.855743 201.559902 L 23.088233 178.030487 L 38.158263 152.526283 C 35.455181 147.484265 33.270307 142.330203 31.673668 136.994068 L 31.589634 136.685944 L 31.533612 136.377821 L 7.415962 130.42544 L 2.654057 129.262974 L 2.499995 95.831598 L 31.155461 88.562689 L 31.183472 88.450645 L 31.351539 88.156527 C 32.906161 82.694341 35.063024 77.386217 37.780111 72.414228 L 24.978989 51.055682 L 22.457981 46.868007 L 45.987395 23.086491 L 71.505606 38.170526 C 76.505606 35.481451 81.68768 33.282571 87.093843 31.643915 L 87.359949 31.559881 L 87.626056 31.503859 L 93.592443 7.400215 L 94.754908 2.638309 L 128.214296 2.484248 L 135.441187 31.125708 C 135.441187 31.125708 135.539227 31.223747 135.665277 31.265764 C 141.309535 32.876408 146.477603 35.00526 151.715699 37.834392 L 172.976206 25.005259 L 177.163882 22.456239 L 200.945397 45.999659 L 185.861362 71.503864 C 188.550438 76.545881 190.735312 81.713949 192.345956 87.050084 L 192.42999 87.316191 L 192.486012 87.582297 L 216.603662 93.590701 L 221.365568 94.753166 L 221.533635 128.184543 L 192.864164 135.453451 C 192.864164 135.453451 192.766124 135.537485 192.738113 135.663535 C 191.15548 141.251771 189.026628 146.419839 186.155479 151.685946 L 199.040635 172.960459 L 201.60366 177.148134 L 178.046235 200.915644 L 152.556035 185.845614 C 147.528024 188.548696 142.373961 190.73357 137.051832 192.330209 L 136.743709 192.414242 L 136.435585 192.484271 L 130.441187 216.573909 L 129.292727 221.335815 L 95.83334 221.503882 Z M 95.805328 221.503882" stroke-linejoin="round" fill="none" transform="matrix(0.278906, 0, 0, 0.278906, 0.123048, 0.373534)" stroke-linecap="butt"></path></g><g clip-path="url(#075d32bdc9)"><g clip-path="url(#7302348bb1)"><path fill-rule="nonzero" d="M 25.550781 18.828125 L 25.550781 44.402344 L 43.050781 44.402344 L 43.050781 18.828125 Z M 25.550781 18.828125" fill="url(#48971f4f6c)"></path></g></g><g clip-path="url(#0038d84611)"><path stroke-miterlimit="10" stroke-opacity="1" stroke-width="5" stroke="#212121" d="M 91.169473 76.727954 L 91.169473 147.274181 C 91.169473 154.066899 98.9846 157.862418 104.320736 153.674742 L 149.740909 118.002469 C 153.914579 114.725158 153.886568 108.394625 149.670881 105.15933 L 104.250708 70.285376 C 98.900567 66.167729 91.169473 69.991259 91.169473 76.727954 Z M 91.169473 76.727954" stroke-linejoin="miter" fill="none" transform="matrix(0.278906, 0, 0, 0.278906, 0.123048, 0.373534)" stroke-linecap="butt"></path></g></svg>